<svg width="47" height="45" viewBox="0 0 47 45" fill="none" xmlns="http://www.w3.org/2000/svg">
<path fill-rule="evenodd" clip-rule="evenodd" d="M12.729 8.4375C12.1882 8.4375 11.7498 8.85724 11.7498 9.375V38.4375C11.7498 38.9553 12.1882 39.375 12.729 39.375H34.2707C34.8115 39.375 35.2498 38.9553 35.2498 38.4375V9.375C35.2498 8.85724 34.8115 8.4375 34.2707 8.4375H28.8037V6.5625H34.2707C35.8931 6.5625 37.2082 7.82169 37.2082 9.375V38.4375C37.2082 39.9908 35.8931 41.25 34.2707 41.25H12.729C11.1066 41.25 9.7915 39.9908 9.7915 38.4375V9.375C9.7915 7.8217 11.1066 6.5625 12.729 6.5625H18.196V8.4375H12.729Z" fill="#333333"/>
<path fill-rule="evenodd" clip-rule="evenodd" d="M16.646 6.5625C16.646 5.0092 17.9611 3.75 19.5835 3.75H27.4168C29.0392 3.75 30.3543 5.0092 30.3543 6.5625V8.4375C30.3543 9.99084 29.0392 11.25 27.4168 11.25H19.5835C17.9611 11.25 16.646 9.99084 16.646 8.4375V6.5625ZM19.5835 5.625C19.0427 5.625 18.6043 6.04474 18.6043 6.5625V8.4375C18.6043 8.95526 19.0427 9.375 19.5835 9.375H27.4168C27.9576 9.375 28.396 8.95526 28.396 8.4375V6.5625C28.396 6.04474 27.9576 5.625 27.4168 5.625H19.5835Z" fill="#333333"/>
<path fill-rule="evenodd" clip-rule="evenodd" d="M14.6875 19.6875C14.6875 19.1697 15.1259 18.75 15.6667 18.75H22.5208C23.0616 18.75 23.5 19.1697 23.5 19.6875C23.5 20.2053 23.0616 20.625 22.5208 20.625H15.6667C15.1259 20.625 14.6875 20.2053 14.6875 19.6875Z" fill="#333333"/>
<path fill-rule="evenodd" clip-rule="evenodd" d="M14.6875 15C14.6875 14.4822 15.1259 14.0625 15.6667 14.0625H30.8438C31.3845 14.0625 31.8229 14.4822 31.8229 15C31.8229 15.5178 31.3845 15.9375 30.8438 15.9375H15.6667C15.1259 15.9375 14.6875 15.5178 14.6875 15Z" fill="#333333"/>
<path fill-rule="evenodd" clip-rule="evenodd" d="M16.6458 27.1875V29.0625H18.6042V27.1875H16.6458ZM15.6667 25.3125C15.1259 25.3125 14.6875 25.7322 14.6875 26.25V30C14.6875 30.5178 15.1259 30.9375 15.6667 30.9375H19.5833C20.1241 30.9375 20.5625 30.5178 20.5625 30V26.25C20.5625 25.7322 20.1241 25.3125 19.5833 25.3125H15.6667Z" fill="#333333"/>
<path fill-rule="evenodd" clip-rule="evenodd" d="M27.4165 27.1875C27.9579 27.1875 28.3957 26.7683 28.3957 26.25C28.3957 25.7317 27.9579 25.3125 27.4165 25.3125C26.8751 25.3125 26.4373 25.7317 26.4373 26.25C26.4373 26.7683 26.8751 27.1875 27.4165 27.1875ZM27.4165 29.0625C29.0395 29.0625 30.354 27.8039 30.354 26.25C30.354 24.6961 29.0395 23.4375 27.4165 23.4375C25.7935 23.4375 24.479 24.6961 24.479 26.25C24.479 27.8039 25.7935 29.0625 27.4165 29.0625Z" fill="#333333"/>
<path fill-rule="evenodd" clip-rule="evenodd" d="M23.4998 33.0743C23.5123 33.0605 23.5297 33.0423 23.5536 33.0199C23.7139 32.8697 24.024 32.6707 24.5096 32.4733C25.4886 32.075 26.6966 31.875 27.4165 31.875C28.1364 31.875 29.3444 32.075 30.3235 32.4733C30.809 32.6707 31.1191 32.8697 31.2794 33.0199C31.3033 33.0423 31.3207 33.0605 31.3332 33.0743V34.6875H23.4998V33.0743ZM27.4165 30C25.4557 30 21.5415 30.9993 21.5415 32.9829V36.5625H33.2915V32.9829C33.2915 30.9993 29.3773 30 27.4165 30Z" fill="#333333"/>
</svg>
