<svg width="163" height="162" viewBox="0 0 163 162" fill="none" xmlns="http://www.w3.org/2000/svg">
<mask id="mask0_3496_6105" style="mask-type:alpha" maskUnits="userSpaceOnUse" x="0" y="0" width="163" height="162">
<rect width="163" height="162" fill="#D9D9D9"/>
</mask>
<g mask="url(#mask0_3496_6105)">
<path d="M81.5 148.5C73.2368 147.487 65.0302 145.264 56.8802 141.831C48.7302 138.402 41.4564 133.481 35.0586 127.069C28.6654 120.656 23.4879 112.556 19.5261 102.769C15.5643 92.9813 13.5834 81.225 13.5834 67.5V60.75H20.375C26.148 60.75 32.0907 61.4812 38.2032 62.9437C44.3157 64.4062 50.032 66.6 55.3521 69.525C56.7105 59.85 59.7961 49.9208 64.6092 39.7373C69.4177 29.5583 75.048 20.8125 81.5 13.5C87.9521 20.8125 93.5847 29.5583 98.3977 39.7373C103.206 49.9208 106.29 59.85 107.648 69.525C112.968 66.6 118.684 64.4062 124.797 62.9437C130.909 61.4812 136.852 60.75 142.625 60.75H149.417V67.5C149.417 81.225 147.436 92.9813 143.474 102.769C139.512 112.556 134.332 120.656 127.935 127.069C121.541 133.481 114.299 138.402 106.208 141.831C98.1125 145.264 89.8764 147.487 81.5 148.5ZM81.1605 134.663C79.9153 115.988 74.3416 101.869 64.4394 92.3063C54.5326 82.7438 42.2216 76.8375 27.5063 74.5875C28.7514 93.825 34.4972 108.169 44.7435 117.619C54.9854 127.069 67.1243 132.75 81.1605 134.663ZM81.5 91.8C83.198 89.325 85.2649 86.7645 87.7008 84.1185C90.1322 81.477 92.4799 79.2 94.7438 77.2875C94.5174 70.875 93.2428 64.1813 90.9201 57.2063C88.6019 50.2313 85.4618 43.425 81.5 36.7875C77.5382 43.425 74.3982 50.2313 72.08 57.2063C69.7572 64.1813 68.4827 70.875 68.2563 77.2875C70.5202 79.2 72.8973 81.477 75.3875 84.1185C77.8778 86.7645 79.9153 89.325 81.5 91.8ZM94.7438 131.625C98.932 130.275 103.29 128.306 107.818 125.719C112.346 123.131 116.563 119.615 120.471 115.169C124.374 110.727 127.713 105.188 130.488 98.55C133.259 91.9125 134.928 83.925 135.494 74.5875C124.854 76.1625 115.515 79.677 107.478 85.131C99.4414 90.5895 93.2723 97.5375 88.9709 105.975C90.3292 109.575 91.4906 113.513 92.455 117.788C93.4149 122.063 94.1778 126.675 94.7438 131.625Z" fill="#5FA7CF"/>
</g>
</svg>
