<svg width="75" height="75" viewBox="0 0 75 75" fill="none" xmlns="http://www.w3.org/2000/svg">
<path fill-rule="evenodd" clip-rule="evenodd" d="M32.8125 15.625C31.0866 15.625 29.6875 17.0241 29.6875 18.75H25C23.2741 18.75 21.875 20.1491 21.875 21.875V56.25C21.875 57.9759 23.2741 59.375 25 59.375H50C51.7259 59.375 53.125 57.9759 53.125 56.25V21.875C53.125 20.1491 51.7259 18.75 50 18.75H45.3125C45.3125 17.0241 43.9134 15.625 42.1875 15.625H32.8125ZM32.8125 18.75H42.1875V21.875H32.8125V18.75ZM38.3706 43.75L34.4747 54.1391C34.1717 54.947 34.5811 55.8477 35.3891 56.1506C36.197 56.4538 37.0977 56.0444 37.4008 55.2363L39.3669 49.993H43.4459L45.4122 55.2363C45.7152 56.0444 46.6158 56.4538 47.4238 56.1506C48.2319 55.8477 48.6413 54.947 48.3383 54.1391L44.4423 43.75H48.9083C49.7713 43.75 50.4708 43.0505 50.4708 42.1875C50.4708 41.3245 49.7713 40.625 48.9083 40.625H42.2173C42.1975 40.6247 42.1775 40.6247 42.1577 40.625H40.6552C40.6353 40.6247 40.6155 40.6247 40.5956 40.625H32.8128C31.95 40.625 31.2503 41.3245 31.2503 42.1875C31.2503 43.0505 31.95 43.75 32.8128 43.75H38.3706ZM48.4375 30.0625H26.5625V26.9375H48.4375V30.0625ZM26.5625 36.5625H34.375V33.4375H26.5625V36.5625ZM44.5312 35.9375C44.5312 37.6634 43.1322 39.0625 41.4062 39.0625C39.6803 39.0625 38.2812 37.6634 38.2812 35.9375C38.2812 34.2116 39.6803 32.8125 41.4062 32.8125C43.1322 32.8125 44.5312 34.2116 44.5312 35.9375Z" fill="#333333"/>
<path fill-rule="evenodd" clip-rule="evenodd" d="M60.9375 12.5H14.0625C13.1995 12.5 12.5 13.1996 12.5 14.0625V60.9375C12.5 61.8005 13.1996 62.5 14.0625 62.5H60.9375C61.8005 62.5 62.5 61.8005 62.5 60.9375V14.0625C62.5 13.1995 61.8005 12.5 60.9375 12.5ZM14.0625 9.375C11.4737 9.375 9.375 11.4737 9.375 14.0625V60.9375C9.375 63.5264 11.4737 65.625 14.0625 65.625H60.9375C63.5264 65.625 65.625 63.5264 65.625 60.9375V14.0625C65.625 11.4737 63.5264 9.375 60.9375 9.375H14.0625Z" fill="#333333"/>
</svg>
