<svg width="35" height="38" viewBox="0 0 35 38" fill="none" xmlns="http://www.w3.org/2000/svg">
<path fill-rule="evenodd" clip-rule="evenodd" d="M16.3972 25.0438L10.3804 28.5176C8.48143 29.614 7.83082 32.0422 8.92718 33.941C10.0234 35.8399 12.4516 36.4905 14.3505 35.3942L20.3674 31.9203L16.3972 25.0438ZM9.38782 26.7986C6.53942 28.443 5.56356 32.0852 7.208 34.9335C8.85254 37.7819 12.4947 38.7578 15.3431 37.1133L22.6493 32.895C22.8867 32.758 22.9681 32.4545 22.831 32.2171L17.372 22.7619C17.2349 22.5245 16.9314 22.4432 16.6941 22.5803L9.38782 26.7986Z" fill="#111111"/>
<path fill-rule="evenodd" clip-rule="evenodd" d="M18.3651 24.4811L24.8118 20.7591C26.4733 19.7998 28.598 20.3691 29.5573 22.0307C30.5165 23.6923 29.9472 25.8168 28.2857 26.7761L21.839 30.4981L18.3651 24.4811ZM23.8193 19.04C26.4303 17.5326 29.7689 18.4271 31.2763 21.0381C32.7838 23.6491 31.8892 26.9878 29.2783 28.4953L21.5422 32.9617C21.3048 33.0987 21.0013 33.0174 20.8642 32.7801L15.9015 24.1844C15.7645 23.9471 15.8458 23.6435 16.0832 23.5065L23.8193 19.04Z" fill="#111111"/>
<path fill-rule="evenodd" clip-rule="evenodd" d="M22.831 32.2173C22.9681 32.4546 22.8867 32.7581 22.6493 32.8952L15.3431 37.1135C12.4947 38.7579 8.85254 37.7821 7.208 34.9337C5.56356 32.0854 6.53942 28.4432 9.38782 26.7987L16.6941 22.5804C16.9314 22.4434 17.2349 22.5246 17.372 22.7621L23.8188 19.04C26.4297 17.5326 29.7683 18.4271 31.2758 21.0381C32.7833 23.6491 31.8887 26.9878 29.2777 28.4953L22.831 32.2173ZM18.3645 24.4811L21.8384 30.4981L28.2852 26.7761C29.9467 25.8168 30.516 23.6923 29.5567 22.0307C28.5974 20.3691 26.4728 19.7998 24.8113 20.7591L18.3645 24.4811ZM14.3505 35.3943C12.4516 36.4907 10.0234 35.8401 8.92718 33.9411C7.83082 32.0423 8.48143 29.6142 10.3804 28.5178L16.3972 25.0439L20.3674 31.9204L14.3505 35.3943Z" fill="#111111"/>
<path fill-rule="evenodd" clip-rule="evenodd" d="M22.8485 12.1513C25.1741 14.477 28.9447 14.477 31.2704 12.1513C33.5961 9.82565 33.5961 6.05499 31.2704 3.72933C28.9447 1.40366 25.1741 1.40366 22.8485 3.72933C20.5227 6.05499 20.5227 9.82565 22.8485 12.1513ZM21.4448 13.555C24.5456 16.6558 29.5732 16.6558 32.6741 13.555C35.775 10.4541 35.775 5.42652 32.6741 2.32567C29.5732 -0.775224 24.5456 -0.775224 21.4448 2.32567C18.3439 5.42652 18.3439 10.4541 21.4448 13.555Z" fill="#111111"/>
<path fill-rule="evenodd" clip-rule="evenodd" d="M31.4453 13.3802L21.6196 3.55458L22.6724 2.50183L32.4981 12.3274L31.4453 13.3802Z" fill="#111111"/>
<path fill-rule="evenodd" clip-rule="evenodd" d="M13.3987 17.2728L8.52925 5.44347L1.98747 16.4367L13.3987 17.2728ZM10.3649 4.68784C9.74213 3.17519 7.65988 3.02261 6.82337 4.42835L0.281585 15.4216C-0.473044 16.6897 0.370685 18.3087 1.84241 18.4165L13.2537 19.2526C14.7254 19.3604 15.7961 17.8818 15.2344 16.5171L10.3649 4.68784Z" fill="#111111"/>
</svg>
