<svg width="39" height="40" viewBox="0 0 39 40" fill="none" xmlns="http://www.w3.org/2000/svg">
<path fill-rule="evenodd" clip-rule="evenodd" d="M9.48997 2.08521H7.61909C5.51518 2.08521 3.80957 3.7908 3.80957 5.89477V32.5617C3.80957 34.6657 5.51518 36.3713 7.61909 36.3713H26.6669C28.7709 36.3713 30.4765 34.6657 30.4765 32.5617V5.89477C30.4765 3.7908 28.7709 2.08521 26.6669 2.08521H24.7282V2.38097V3.33414V3.98999H26.6669C27.7189 3.98999 28.5717 4.84278 28.5717 5.89477V32.5617C28.5717 33.6136 27.7189 34.4665 26.6669 34.4665H7.61909C6.56718 34.4665 5.71431 33.6136 5.71431 32.5617V5.89477C5.71431 4.84278 6.56718 3.98999 7.61909 3.98999H9.48997V3.33414V2.38097V2.08521ZM14.2519 3.98999H19.9663V3.33414V2.38097V2.08521H14.2519V2.38097V3.33414V3.98999Z" fill="#333333"/>
<path fill-rule="evenodd" clip-rule="evenodd" d="M9.48975 12.3811C9.48975 11.8551 9.91613 11.4287 10.4421 11.4287H23.7756C24.3016 11.4287 24.728 11.8551 24.728 12.3811C24.728 12.9071 24.3016 13.3335 23.7756 13.3335H10.4421C9.91613 13.3335 9.48975 12.9071 9.48975 12.3811Z" fill="#333333"/>
<path fill-rule="evenodd" clip-rule="evenodd" d="M9.52393 17.3235C9.52393 16.7975 9.95041 16.3711 10.4763 16.3711H23.8098C24.3358 16.3711 24.7622 16.7975 24.7622 17.3235C24.7622 17.8494 24.3358 18.2759 23.8098 18.2759H10.4763C9.95041 18.2759 9.52393 17.8494 9.52393 17.3235Z" fill="#333333"/>
<path fill-rule="evenodd" clip-rule="evenodd" d="M9.52393 22.0854C9.52393 21.5594 9.95041 21.1331 10.4763 21.1331H23.8098C24.3358 21.1331 24.7622 21.5594 24.7622 22.0854C24.7622 22.6114 24.3358 23.0378 23.8098 23.0378H10.4763C9.95041 23.0378 9.52393 22.6114 9.52393 22.0854Z" fill="#333333"/>
<path fill-rule="evenodd" clip-rule="evenodd" d="M9.52393 26.8994C9.52393 26.3735 9.95041 25.947 10.4763 25.947H18.0954C18.6214 25.947 19.0478 26.3735 19.0478 26.8994C19.0478 27.4254 18.6214 27.8518 18.0954 27.8518H10.4763C9.95041 27.8518 9.52393 27.4254 9.52393 26.8994Z" fill="#333333"/>
<path fill-rule="evenodd" clip-rule="evenodd" d="M0.9524 6.62573C1.4784 6.62573 1.90479 7.05214 1.90479 7.57812L1.90478 33.3332C1.90478 35.9631 4.03678 38.0951 6.66669 38.0951H24.8237C25.3496 38.0951 25.7761 38.5215 25.7761 39.0475C25.7761 39.5734 25.3496 39.9999 24.8237 39.9999H6.66669C2.9848 39.9999 0 37.015 0 33.3332L9.53683e-06 7.57812C9.53683e-06 7.05214 0.426414 6.62573 0.9524 6.62573Z" fill="#333333"/>
<path fill-rule="evenodd" clip-rule="evenodd" d="M36.1567 16.1905H34.2519V30.7938L35.2043 32.0637L36.1567 30.7938V16.1905ZM38.0615 31.4288L35.2043 35.2383L32.3472 31.4288V14.2858H38.0615V31.4288Z" fill="#333333"/>
<path fill-rule="evenodd" clip-rule="evenodd" d="M36.1567 9.52392H34.2519V11.4287H36.1567V9.52392ZM34.2519 7.61914H36.1567C37.2087 7.61914 38.0615 8.47191 38.0615 9.52392V13.3335H32.3472V9.52392C32.3472 8.47191 33.1999 7.61914 34.2519 7.61914Z" fill="#333333"/>
<path fill-rule="evenodd" clip-rule="evenodd" d="M22.3475 0C23.1365 0 23.7761 0.639597 23.7761 1.42859V4.28654C23.7761 5.07553 23.1365 5.71512 22.3475 5.71512C21.5586 5.71512 20.9189 5.07553 20.9189 4.28654V1.42859C20.9189 0.639597 21.5586 0 22.3475 0Z" fill="#333333"/>
<path fill-rule="evenodd" clip-rule="evenodd" d="M11.8788 0C12.6678 0 13.3074 0.639597 13.3074 1.42859V4.28654C13.3074 5.07553 12.6678 5.71512 11.8788 5.71512C11.0898 5.71512 10.4502 5.07553 10.4502 4.28654V1.42859C10.4502 0.639597 11.0898 0 11.8788 0Z" fill="#333333"/>
</svg>
