<svg width="47" height="63" viewBox="0 0 47 63" fill="none" xmlns="http://www.w3.org/2000/svg">
<path fill-rule="evenodd" clip-rule="evenodd" d="M13.0855 22.3663C14.5596 22.6469 15.6261 23.9356 15.6261 25.4363V57.8125C15.6261 58.6755 16.3257 59.375 17.1886 59.375H17.3243C18.1324 59.375 18.8072 58.7588 18.8804 57.9539L20.3136 42.1875C20.3182 40.4649 21.716 39.0706 23.4386 39.0706C25.1613 39.0706 26.5591 40.4647 26.5636 42.1874L27.9969 57.9539C28.07 58.7588 28.7449 59.375 29.553 59.375H29.6886C30.5516 59.375 31.2511 58.6755 31.2511 57.8125V25.4952C31.2511 23.9944 32.318 22.7056 33.7924 22.4252C36.5361 21.9034 39.4374 21.1794 42.6258 20.2502C43.4544 20.0088 43.9302 19.1414 43.6888 18.3128C43.4474 17.4844 42.58 17.0086 41.7515 17.25C34.5107 19.3603 28.9554 20.3369 23.4454 20.3122C17.9297 20.2874 12.3677 19.2592 5.10646 17.2445C4.27489 17.0138 3.4138 17.5008 3.18302 18.3324C2.95239 19.1639 3.43942 20.025 4.27099 20.2556C7.44771 21.1372 10.3427 21.8442 13.0855 22.3663ZM21.8416 59.0664C21.2894 61.0622 19.4624 62.5 17.3243 62.5H17.1886C14.5997 62.5 12.5011 60.4014 12.5011 57.8125V25.4363C9.64833 24.8933 6.66567 24.1633 3.43536 23.2669C0.940799 22.5747 -0.520341 19.9914 0.171846 17.4967C0.864034 15.0022 3.44739 13.5411 5.94192 14.2333C13.0816 16.2144 18.3404 17.1642 23.4593 17.1872C28.5618 17.21 33.8002 16.3124 40.8771 14.2499C43.3625 13.5255 45.9646 14.9531 46.689 17.4384C47.4133 19.9239 45.9857 22.5259 43.5002 23.2503C40.2436 24.1994 37.2425 24.9502 34.3761 25.4952V57.8125C34.3761 60.4014 32.2775 62.5 29.6886 62.5H29.553C27.4149 62.5 25.5879 61.0622 25.0357 59.0664C24.985 58.883 24.9451 58.6949 24.9165 58.5027C24.9035 58.415 24.8929 58.3263 24.8847 58.2369L23.4515 42.4705C23.4432 42.3786 23.439 42.287 23.4386 42.1956C23.4383 42.287 23.4341 42.3786 23.4258 42.4705L21.9925 58.2369C21.9844 58.3263 21.9738 58.415 21.9608 58.5027C21.9322 58.6949 21.8922 58.883 21.8416 59.0664Z" fill="#333333"/>
<path fill-rule="evenodd" clip-rule="evenodd" d="M23.4385 12.5C26.0274 12.5 28.126 10.4014 28.126 7.8125C28.126 5.22367 26.0274 3.125 23.4385 3.125C20.8496 3.125 18.751 5.22367 18.751 7.8125C18.751 10.4014 20.8496 12.5 23.4385 12.5ZM23.4385 15.625C27.7532 15.625 31.251 12.1272 31.251 7.8125C31.251 3.49778 27.7532 0 23.4385 0C19.1238 0 15.626 3.49778 15.626 7.8125C15.626 12.1272 19.1238 15.625 23.4385 15.625Z" fill="#333333"/>
</svg>
