<svg width="75" height="75" viewBox="0 0 75 75" fill="none" xmlns="http://www.w3.org/2000/svg">
<path d="M18.75 15.625C20.4759 15.625 21.875 14.2259 21.875 12.5C21.875 10.7741 20.4759 9.375 18.75 9.375C17.5933 9.375 16.5834 10.0034 16.0431 10.9375H15.625C13.0362 10.9375 10.9375 13.0362 10.9375 15.625V29.6875H14.0625V15.625C14.0625 14.7621 14.7621 14.0625 15.625 14.0625H16.0431C16.5834 14.9966 17.5933 15.625 18.75 15.625Z" fill="#333333"/>
<path fill-rule="evenodd" clip-rule="evenodd" d="M15.8752 29.6875H14.0624H10.9374C10.0745 29.6875 9.36757 30.3886 9.44588 31.248C9.80915 35.2342 11.5556 38.9875 14.4091 41.8409C16.5015 43.9333 19.0777 45.4305 21.8749 46.2234V50C21.8749 52.0412 23.1796 53.7777 25.0005 54.4209C25.0671 60.6202 30.1132 65.625 36.328 65.625C42.5844 65.625 47.6561 60.5533 47.6561 54.2969V48.0469C47.6561 44.8108 50.2794 42.1875 53.5155 42.1875C56.7516 42.1875 59.3749 44.8108 59.3749 48.0469V51.8292C57.5543 52.4727 56.2499 54.2091 56.2499 56.25C56.2499 58.8389 58.3485 60.9375 60.9374 60.9375C63.5263 60.9375 65.6249 58.8389 65.6249 56.25C65.6249 54.2091 64.3205 52.4727 62.4999 51.8292V48.0469C62.4999 43.085 58.4774 39.0625 53.5155 39.0625C48.5536 39.0625 44.5311 43.085 44.5311 48.0469V54.2969C44.5311 58.8273 40.8585 62.5 36.328 62.5C31.8388 62.5 28.1919 58.8939 28.1258 54.4205C29.946 53.7767 31.2499 52.0406 31.2499 50V46.2234C34.0471 45.4305 36.6235 43.9333 38.7158 41.8409C41.5693 38.9875 43.3157 35.2342 43.679 31.248C43.7574 30.3886 43.0504 29.6875 42.1874 29.6875V15.625C42.1874 13.0362 40.0888 10.9375 37.4999 10.9375H37.0818C36.5415 10.0034 35.5316 9.375 34.3749 9.375C32.649 9.375 31.2499 10.7741 31.2499 12.5C31.2499 14.2259 32.649 15.625 34.3749 15.625C35.5316 15.625 36.5415 14.9966 37.0818 14.0625H37.4999C38.3629 14.0625 39.0624 14.7621 39.0624 15.625V29.6875H37.2497C36.3868 29.6875 35.7008 30.392 35.5538 31.2425C35.2351 33.0853 34.3549 34.7995 33.0146 36.1397C31.3035 37.8509 28.9826 38.8123 26.5624 38.8123C24.1424 38.8123 21.8215 37.8509 20.1102 36.1397C18.7701 34.7995 17.8897 33.0853 17.571 31.2425C17.424 30.392 16.738 29.6875 15.8752 29.6875ZM38.4069 32.8125H40.2733C39.6894 35.3744 38.3938 37.7436 36.5061 39.6313C33.869 42.2684 30.2921 43.75 26.5624 43.75C22.8329 43.75 19.256 42.2684 16.6188 39.6313C14.7311 37.7436 13.4355 35.3744 12.8515 32.8125H14.7179C15.2659 34.8892 16.3555 36.8044 17.9005 38.3494C20.1979 40.6467 23.3136 41.9373 26.5624 41.9373C29.8113 41.9373 32.9271 40.6467 35.2244 38.3494C36.7694 36.8044 37.859 34.8892 38.4069 32.8125ZM60.9374 54.6875C61.8004 54.6875 62.4999 55.387 62.4999 56.25C62.4999 57.113 61.8004 57.8125 60.9374 57.8125C60.0744 57.8125 59.3749 57.113 59.3749 56.25C59.3749 55.387 60.0744 54.6875 60.9374 54.6875ZM28.1249 46.875V50C28.1249 50.863 27.4254 51.5625 26.5624 51.5625C25.6994 51.5625 24.9999 50.863 24.9999 50V46.875H28.1249Z" fill="#333333"/>
</svg>
