<svg width="48" height="70" viewBox="0 0 48 70" fill="none" xmlns="http://www.w3.org/2000/svg">
<path d="M26.5989 15L27.1962 20H42.3163L41.062 30H23.2961L22.1292 20H22.1432L21.5459 15L21.5389 14.9392L20.1213 2.79156L19.7954 0H0V5H15.3276L16.4945 15H2.17575L8.52612 65.6202C8.67943 66.8286 9.26949 67.94 10.1858 68.7462C11.1022 69.5524 12.282 69.9981 13.5043 70H36.6714C37.8939 69.9983 39.0738 69.5526 39.9903 68.7464C40.9068 67.9402 41.4969 66.8287 41.6503 65.6202L48 15H26.5989ZM7.8594 20H17.0779L18.2448 30H9.1138L7.8594 20ZM36.6736 65H13.5042L9.74099 35H18.8283L21.0161 53.75H26.0674L23.8794 35H40.4354L36.6736 65Z" fill="#333333"/>
</svg>
